<svg id="visual" viewBox="0 0 900 600" width="900" height="600" xmlns="http://www.w3.org/2000/svg" xmlns:xlink="http://www.w3.org/1999/xlink" version="1.1"><rect width="900" height="600" fill="#001829"></rect><g><g transform="translate(796 205)"><path d="M0 -129.5L91.6 -91.6L129.5 0L91.6 91.6L0 129.5L-91.6 91.6L-129.5 0L-91.6 -91.6Z" stroke="#297EA6" fill="none" stroke-width="2"></path></g><g transform="translate(287 290)"><path d="M0 -99L70 -70L99 0L70 70L0 99L-70 70L-99 0L-70 -70Z" stroke="#297EA6" fill="none" stroke-width="2"></path></g><g transform="translate(52 433)"><path d="M0 -108L76.4 -76.4L108 0L76.4 76.4L0 108L-76.4 76.4L-108 0L-76.4 -76.4Z" stroke="#297EA6" fill="none" stroke-width="2"></path></g><g transform="translate(716 584)"><path d="M0 -121L85.6 -85.6L121 0L85.6 85.6L0 121L-85.6 85.6L-121 0L-85.6 -85.6Z" stroke="#297EA6" fill="none" stroke-width="2"></path></g><g transform="translate(575 45)"><path d="M0 -111L78.5 -78.5L111 0L78.5 78.5L0 111L-78.5 78.5L-111 0L-78.5 -78.5Z" stroke="#297EA6" fill="none" stroke-width="2"></path></g><g transform="translate(490 454)"><path d="M0 -118L83.4 -83.4L118 0L83.4 83.4L0 118L-83.4 83.4L-118 0L-83.4 -83.4Z" stroke="#297EA6" fill="none" stroke-width="2"></path></g><g transform="translate(163 46)"><path d="M0 -97L68.6 -68.6L97 0L68.6 68.6L0 97L-68.6 68.6L-97 0L-68.6 -68.6Z" stroke="#297EA6" fill="none" stroke-width="2"></path></g></g></svg>